<svg xmlns="http://www.w3.org/2000/svg" width="800" height="600"><path d="M309 233.99h45.8M354.8 233.99zM354.8 233.99l1.17.16M355.97 234.15l1.09.45M357.06 234.6l.93.71M357.99 235.31l.72.94M358.71 236.25l.45 1.09M359.16 237.34l.15 1.16M359.31 238.5v60.15zM359.31 298.65zM359.31 298.65l-.15 1.17M359.16 299.82l-.45 1.08M358.71 300.9l-.72.94M357.99 301.84l-.93.71M357.06 302.55l-1.09.46M355.97 303.01l-1.17.15M354.8 303.16h-60.14M294.66 303.16zM294.66 303.16l-1.17-.15M293.49 303.01l-1.09-.46M292.4 302.55l-.93-.71M291.47 301.84l-.72-.94M290.75 300.9l-.45-1.08M290.3 299.82l-.15-1.17M290.15 298.65V238.5zM290.15 238.5zM290.15 238.5l.15-1.16M290.3 237.34l.45-1.09M290.75 236.25l.72-.94M291.47 235.31l.93-.71M292.4 234.6l1.09-.45M293.49 234.15l1.17-.16M294.66 225.05h60.14M354.8 225.05zM354.8 225.05l2.11.16M356.91 225.21l2.05.49M358.96 225.7l1.95.81M360.91 226.51l1.8 1.11M362.71 227.62l1.61 1.37M364.32 228.99l1.37 1.6M365.69 230.59l1.1 1.8M366.79 232.39l.81 1.95M367.6 234.34l.49 2.06M368.09 236.4l.17 2.1M368.26 238.5v60.15zM368.26 298.65zM368.26 298.65l-.17 2.1M368.09 300.75l-.49 2.06M367.6 302.81l-.81 1.95M366.79 304.76l-1.1 1.8M365.69 306.56l-1.37 1.6M364.32 308.16l-1.61 1.37M362.71 309.53l-1.8 1.11M360.91 310.64l-1.95.81M358.96 311.45l-2.05.49M356.91 311.94l-2.11.16M354.8 312.1h-60.14M294.66 312.1zM294.66 312.1l-2.11-.16M292.55 311.94l-2.05-.49M290.5 311.45l-1.95-.81M288.55 310.64l-1.8-1.11M286.75 309.53l-1.61-1.37M285.14 308.16l-1.37-1.6M283.77 306.56l-1.1-1.8M282.67 304.76l-.81-1.95M281.86 302.81l-.49-2.06M281.37 300.75l-.17-2.1M281.2 298.65V238.5zM281.2 238.5zM281.2 238.5l.17-2.1M281.37 236.4l.49-2.06M281.86 234.34l.81-1.95M282.67 232.39l1.1-1.8M283.77 230.59l1.37-1.6M285.14 228.99l1.61-1.37M286.75 227.62l1.8-1.11M288.55 226.51l1.95-.81M290.5 225.7l2.05-.49M292.55 225.21l2.11-.16M299.09 238.5l-.2 1.31M298.89 239.81l-.57 1.19M298.32 241l-.9.97M297.42 241.97l-1.14.66M296.28 242.63l-1.29.3M294.99 242.93l-1.32-.1M293.67 242.83l-1.23-.49M292.44 242.34l-1.03-.82M291.41 241.52l-.75-1.09M290.66 240.43l-.39-1.27M290.27 239.16v-1.32zM290.27 237.84l.39-1.26M290.66 236.58l.75-1.09M291.41 235.49l1.03-.83M292.44 234.66l1.23-.48M293.67 234.18l1.32-.1M294.99 234.08l1.29.29M296.28 234.37l1.14.67M297.42 235.04l.9.96M298.32 236l.57 1.2M298.89 237.2l.2 1.3M304.03 229.06a13.334 13.334 0 0 0-22.05 4.93M359.24 238.5l-.2 1.31M359.04 239.81l-.57 1.19M358.47 241l-.9.97M357.57 241.97l-1.15.66M356.42 242.63l-1.29.3M355.13 242.93l-1.32-.1M353.81 242.83l-1.23-.49M352.58 242.34l-1.03-.82M351.55 241.52l-.74-1.09M350.81 240.43l-.39-1.27M350.42 239.16v-1.32zM350.42 237.84l.39-1.26M350.81 236.58l.74-1.09M351.55 235.49l1.03-.83M352.58 234.66l1.23-.48M353.81 234.18l1.32-.1M355.13 234.08l1.29.29M356.42 234.37l1.15.67M357.57 235.04l.9.96M358.47 236l.57 1.2M359.04 237.2l.2 1.3M299.09 298.65l-.2 1.31M298.89 299.96l-.57 1.19M298.32 301.15l-.9.97M297.42 302.12l-1.14.66M296.28 302.78l-1.29.29M294.99 303.07l-1.32-.1M293.67 302.97l-1.23-.48M292.44 302.49l-1.03-.83M291.41 301.66l-.75-1.09M290.66 300.57l-.39-1.26M290.27 299.31v-1.32zM290.27 297.99l.39-1.27M290.66 296.72l.75-1.09M291.41 295.63l1.03-.82M292.44 294.81l1.23-.49M293.67 294.32l1.32-.1M294.99 294.22l1.29.3M296.28 294.52l1.14.66M297.42 295.18l.9.97M298.32 296.15l.57 1.19M298.89 297.34l.2 1.31M359.24 298.65l-.2 1.31M359.04 299.96l-.57 1.19M358.47 301.15l-.9.97M357.57 302.12l-1.15.66M356.42 302.78l-1.29.29M355.13 303.07l-1.32-.1M353.81 302.97l-1.23-.48M352.58 302.49l-1.03-.83M351.55 301.66l-.74-1.09M350.81 300.57l-.39-1.26M350.42 299.31v-1.32zM350.42 297.99l.39-1.27M350.81 296.72l.74-1.09M351.55 295.63l1.03-.82M352.58 294.81l1.23-.49M353.81 294.32l1.32-.1M355.13 294.22l1.29.3M356.42 294.52l1.15.66M357.57 295.18l.9.97M358.47 296.15l.57 1.19M359.04 297.34l.2 1.31M291.53 241.65l10.68 10.59M290.15 252.77l5.81 5.77M297.78 235.35l10.68 10.59M304.03 229.06l10.67 10.58M295.96 258.54l6.25-6.3M308.46 245.94l6.24-6.3" fill="none" stroke="#000" stroke-width=".5"/></svg>